<mxfile host="65bd71144e">
    <diagram name="第 1 页" id="_kCn5gWWrIlWfqqUU_DX">
        <mxGraphModel dx="1090" dy="731" grid="1" gridSize="10" guides="1" tooltips="1" connect="1" arrows="1" fold="1" page="1" pageScale="1" pageWidth="1100" pageHeight="1700" math="0" shadow="0">
            <root>
                <mxCell id="0"/>
                <mxCell id="1" parent="0"/>
                <mxCell id="7" value="修改建議資料UI" style="shape=umlLifeline;participant=umlBoundary;perimeter=lifelinePerimeter;whiteSpace=wrap;html=1;container=1;collapsible=0;recursiveResize=0;verticalAlign=top;spacingTop=36;outlineConnect=0;fontSize=16;size=54;" parent="1" vertex="1">
                    <mxGeometry x="390" y="93.75" width="70" height="900" as="geometry"/>
                </mxCell>
                <mxCell id="92" value="備課資料" style="shape=umlLifeline;participant=umlEntity;perimeter=lifelinePerimeter;whiteSpace=wrap;html=1;container=1;collapsible=0;recursiveResize=0;verticalAlign=top;spacingTop=36;outlineConnect=0;fontSize=14;size=60;" vertex="1" parent="1">
                    <mxGeometry x="640" y="100" width="60" height="1000" as="geometry"/>
                </mxCell>
                <mxCell id="94" value="編輯建議資料" style="shape=umlLifeline;participant=umlControl;perimeter=lifelinePerimeter;whiteSpace=wrap;html=1;container=1;collapsible=0;recursiveResize=0;verticalAlign=top;spacingTop=36;outlineConnect=0;fontSize=14;size=60;align=center;" vertex="1" parent="1">
                    <mxGeometry x="520" y="93.75" width="60" height="1000" as="geometry"/>
                </mxCell>
                <mxCell id="97" value="確認結果UI" style="shape=umlLifeline;participant=umlBoundary;perimeter=lifelinePerimeter;whiteSpace=wrap;html=1;container=1;collapsible=0;recursiveResize=0;verticalAlign=top;spacingTop=36;outlineConnect=0;fontSize=16;size=54;" vertex="1" parent="1">
                    <mxGeometry x="250" y="93.75" width="70" height="900" as="geometry"/>
                </mxCell>
            </root>
        </mxGraphModel>
    </diagram>
</mxfile>